<svg width="32" height="32" viewBox="0 0 32 32" fill="none" xmlns="http://www.w3.org/2000/svg">
  <!-- Background circle -->
  <circle cx="16" cy="16" r="16" fill="url(#gradient)" />
  
  <!-- Neural network nodes -->
  <circle cx="8" cy="12" r="2" fill="white" opacity="0.9" />
  <circle cx="16" cy="8" r="2" fill="white" opacity="0.9" />
  <circle cx="24" cy="12" r="2" fill="white" opacity="0.9" />
  <circle cx="12" cy="20" r="2" fill="white" opacity="0.9" />
  <circle cx="20" cy="20" r="2" fill="white" opacity="0.9" />
  <circle cx="16" cy="24" r="2" fill="white" opacity="0.9" />
  
  <!-- Neural network connections -->
  <line x1="8" y1="12" x2="16" y2="8" stroke="white" stroke-width="1.5" opacity="0.7" />
  <line x1="16" y1="8" x2="24" y2="12" stroke="white" stroke-width="1.5" opacity="0.7" />
  <line x1="8" y1="12" x2="12" y2="20" stroke="white" stroke-width="1.5" opacity="0.7" />
  <line x1="24" y1="12" x2="20" y2="20" stroke="white" stroke-width="1.5" opacity="0.7" />
  <line x1="12" y1="20" x2="16" y2="24" stroke="white" stroke-width="1.5" opacity="0.7" />
  <line x1="20" y1="20" x2="16" y2="24" stroke="white" stroke-width="1.5" opacity="0.7" />
  <line x1="12" y1="20" x2="20" y2="20" stroke="white" stroke-width="1.5" opacity="0.7" />
  
  <!-- Central knowledge symbol -->
  <circle cx="16" cy="16" r="3" fill="white" />
  <text x="16" y="18" font-family="Arial, sans-serif" font-size="6" font-weight="bold" text-anchor="middle" fill="url(#gradient)">AI</text>
  
  <defs>
    <linearGradient id="gradient" x1="0%" y1="0%" x2="100%" y2="100%">
      <stop offset="0%" style="stop-color:#667eea;stop-opacity:1" />
      <stop offset="100%" style="stop-color:#764ba2;stop-opacity:1" />
    </linearGradient>
  </defs>
</svg>